<svg xmlns="http://www.w3.org/2000/svg" version="1.1" xmlns:xlink="http://www.w3.org/1999/xlink" xmlns:svgjs="http://svgjs.dev/svgjs" width="1000" height="623" viewBox="0 0 1000 623"><g transform="matrix(1,0,0,1,-0.6060606060606233,0.2522267206477409)"><svg xmlns="http://www.w3.org/2000/svg" version="1.1" xmlns:xlink="http://www.w3.org/1999/xlink" xmlns:svgjs="http://svgjs.com/svgjs" viewBox="0 0 396 247" data-background-color="#001f3f" preserveAspectRatio="xMidYMid meet" height="623" width="1000"><defs></defs><g id="tight-bounds" transform="matrix(1,0,0,1,0.2400000000000091,-0.09999999999999432)"><svg viewBox="0 0 395.52 247.2" height="247.2" width="395.52"><g><svg xmlns="http://www.w3.org/2000/svg" version="1.1" xmlns:xlink="http://www.w3.org/1999/xlink" xmlns:svgjs="http://svgjs.com/svgjs"></svg></g><g><svg viewBox="0 0 395.52 247.2" height="247.2" width="395.52"><g transform="matrix(1,0,0,1,78.27234857142857,47.215199999999996)"><svg viewBox="0 0 238.97530285714285 152.7696" height="152.7696" width="238.97530285714285"><g><svg viewBox="0 0 238.97530285714285 152.7696" height="152.7696" width="238.97530285714285"><g><svg viewBox="0 0 238.97530285714285 152.7696" height="152.7696" width="238.97530285714285"><g><svg viewBox="0 0 238.97530285714285 152.7696" height="152.7696" width="238.97530285714285"><g><svg viewBox="0 0 238.97530285714285 152.7696" height="152.7696" width="238.97530285714285"><g><svg viewBox="0 0 238.97530285714285 152.7696" height="152.7696" width="238.97530285714285"><g transform="matrix(1,0,0,1,0,0)"><svg width="238.97530285714285" viewBox="3.3 -35 54.75 35" height="152.7696" data-palette-color="#ffffff"><path d="M3.3 0L3.3-35 8.85-35 8.85-20.95 22.95-20.95 22.95-35 28.5-35 28.5 0 22.95 0 22.95-15.5 8.85-15.5 8.85 0 3.3 0ZM35.05 0L35.05-35 40.6-35 40.6 0 35.05 0ZM51.65 0L40.85-18.5 51.65-35 58.05-35 47.05-18.5 58.05 0 51.65 0Z" opacity="1" transform="matrix(1,0,0,1,0,0)" fill="#ffffff" class="undefined-text-0" data-fill-palette-color="primary" id="text-0"></path></svg></g></svg></g></svg></g></svg></g></svg></g></svg></g></svg></g><path d="M134.946 41.215L134.946 0 382.146 0 382.146 247.2 134.946 247.2 134.946 205.985 148.723 205.985 148.723 233.423 368.369 233.423 368.369 13.777 148.723 13.777 148.723 41.215Z" fill="#ffffff" stroke="transparent" data-fill-palette-color="primary"></path></svg></g></svg></g></svg></g></svg>