<svg xmlns:xlink="http://www.w3.org/1999/xlink" version="1.1" xmlns="http://www.w3.org/2000/svg"
     viewBox="79.58 22.99 540.57 513.84">
    <g>
        <path d="m613.11 489.07h-485.59v-458.78c0-4.0742-3.3086-7.2969-7.2969-7.2969-4.0742 0-7.2969 3.3086-7.2969 7.2969v34.449h-26.047c-4.0742 0-7.2969 3.3086-7.2969 7.2969 0 3.9883 3.3086 7.2969 7.2969 7.2969h26.047v50.57h-26.047c-4.0742 0-7.2969 3.3086-7.2969 7.2969 0 4.0742 3.3086 7.2969 7.2969 7.2969h26.047v50.57h-26.047c-4.0742 0-7.2969 3.3086-7.2969 7.2969 0 4.0742 3.3086 7.2969 7.2969 7.2969h26.047v50.57h-26.047c-4.0742 0-7.2969 3.3086-7.2969 7.2969 0 3.9883 3.3086 7.2969 7.2969 7.2969h26.047v50.57h-26.047c-4.0742 0-7.2969 3.3086-7.2969 7.2969 0 3.9883 3.3086 7.2969 7.2969 7.2969h26.047v50.57h-26.047c-4.0742 0-7.2969 3.3086-7.2969 7.2969s3.3086 7.2969 7.2969 7.2969h26.047v50.57h-26.047c-4.0742 0-7.2969 3.3086-7.2969 7.2969s3.3086 7.2969 7.2969 7.2969h26.047v25.879c0 4.0742 3.3086 7.2969 7.2969 7.2969h45.055v26.047c0 4.0742 3.3086 7.2969 7.2969 7.2969 4.0742 0 7.2969-3.3086 7.2969-7.2969v-26.047h50.57v26.047c0 4.0742 3.3086 7.2969 7.2969 7.2969 3.9883 0 7.2969-3.3086 7.2969-7.2969v-26.047h50.57v26.047c0 4.0742 3.3086 7.2969 7.2969 7.2969 4.0742 0 7.2969-3.3086 7.2969-7.2969v-26.047h50.57v26.047c0 4.0742 3.3086 7.2969 7.2969 7.2969 4.0742 0 7.2969-3.3086 7.2969-7.2969v-26.047h50.57v26.047c0 4.0742 3.3086 7.2969 7.2969 7.2969s7.2969-3.3086 7.2969-7.2969v-26.047h50.57v26.047c0 4.0742 3.3086 7.2969 7.2969 7.2969 3.9883 0 7.2969-3.3086 7.2969-7.2969v-26.047h50.57v26.047c0 4.0742 3.3086 7.2969 7.2969 7.2969 3.9883 0 7.2969-3.3086 7.2969-7.2969v-26.047h42c4.0742 0 7.2969-3.3086 7.2969-7.2969-0.003906-3.9883-2.9727-7.1289-7.0469-7.1289z" fill="#FFFFFF"/>
        <path d="m191.25 411.01c0.59375 0 1.1016-0.085937 1.6953-0.16797 286.2-68.387 322.43-307.49 322.76-309.87 0.50781-3.9883-2.207-7.7227-6.1953-8.2305-3.9883-0.50781-7.7227 2.207-8.2305 6.1953-0.33984 2.2891-35.465 231.64-311.73 297.65-3.9023 0.93359-6.3633 4.8359-5.4297 8.8242 0.85156 3.3906 3.8203 5.5977 7.1328 5.5977z" fill="#FFFFFF"/>
        <path d="m364.51 133.13c15.613 0 28.254-12.727 28.254-28.254s-12.727-28.254-28.254-28.254c-15.613 0-28.254 12.727-28.254 28.254 0 15.523 12.645 28.254 28.254 28.254zm0-41.918c7.5508 0 13.66 6.1094 13.66 13.66 0 7.5508-6.1094 13.66-13.66 13.66-7.5508 0-13.66-6.1094-13.66-13.66 0-7.5508 6.1094-13.66 13.66-13.66z" fill="#FFFFFF"/>
        <path d="m239.95 340.07c15.613 0 28.254-12.727 28.254-28.254 0-15.527-12.727-28.254-28.254-28.254-15.613 0-28.254 12.727-28.254 28.254-0.003907 15.523 12.727 28.254 28.254 28.254zm0-41.918c7.5508 0 13.66 6.1094 13.66 13.66 0 7.5508-6.1094 13.66-13.66 13.66s-13.66-6.1094-13.66-13.66c-0.003907-7.5508 6.1914-13.66 13.66-13.66z" fill="#FFFFFF"/>
        <path d="m253.36 154.09c15.613 0 28.254-12.727 28.254-28.254 0-15.613-12.727-28.254-28.254-28.254-15.613 0-28.254 12.727-28.254 28.254-0.003907 15.609 12.641 28.254 28.254 28.254zm0-41.918c7.5508 0 13.66 6.1094 13.66 13.66s-6.1094 13.66-13.66 13.66c-7.5547 0.003907-13.664-6.1055-13.664-13.656 0-7.5547 6.1094-13.664 13.664-13.664z" fill="#FFFFFF"/>
        <path d="m300.87 243.01c12.898 0 23.418-10.52 23.418-23.418 0-12.898-10.52-23.418-23.418-23.418-12.898 0-23.418 10.52-23.418 23.418 0 12.895 10.523 23.418 23.418 23.418zm0-32.16c4.8359 0 8.8242 3.9023 8.8242 8.8242 0 4.8359-3.9883 8.8242-8.8242 8.8242-4.8359 0-8.8242-3.9883-8.8242-8.8242 0-4.9219 3.9883-8.8242 8.8242-8.8242z" fill="#FFFFFF"/>
        <path d="m357.21 215.52c0 12.898 10.52 23.418 23.418 23.418 12.898 0 23.418-10.52 23.418-23.418s-10.52-23.418-23.418-23.418c-12.895 0-23.418 10.52-23.418 23.418zm32.16 0c0 4.8359-3.9883 8.8242-8.8242 8.8242s-8.8242-3.9883-8.8242-8.8242 3.9023-8.8242 8.8242-8.8242c4.918 0 8.8242 3.9883 8.8242 8.8242z" fill="#FFFFFF"/>
        <path d="m438.33 374.61c-12.898 0-23.418 10.52-23.418 23.418 0 12.898 10.52 23.418 23.418 23.418s23.418-10.52 23.418-23.418c0-12.895-10.523-23.418-23.418-23.418zm0 32.156c-4.8359 0-8.8242-3.9883-8.8242-8.8242s3.9023-8.8242 8.8242-8.8242 8.8242 3.9883 8.8242 8.8242c0 4.9219-3.9883 8.8242-8.8242 8.8242z" fill="#FFFFFF"/>
        <path d="m497.72 311.82c0-12.898-10.52-23.418-23.418-23.418-12.898 0-23.418 10.52-23.418 23.418 0 12.898 10.52 23.418 23.418 23.418 12.895 0.003906 23.418-10.52 23.418-23.418zm-32.242 0c0-4.8359 3.9023-8.8242 8.8242-8.8242 4.9219 0 8.8242 3.9883 8.8242 8.8242 0 4.8359-3.9023 8.8242-8.8242 8.8242-4.9219 0-8.8242-3.9844-8.8242-8.8242z" fill="#FFFFFF"/>
        <path d="m543.03 402.44c15.273 0 27.746-12.473 27.746-27.746 0-15.273-12.473-27.746-27.746-27.746s-27.746 12.473-27.746 27.746c0 15.273 12.387 27.746 27.746 27.746zm0-40.898c7.2109 0 13.152 5.9375 13.152 13.152 0 7.2109-5.9375 13.152-13.152 13.152-7.2109 0-13.152-5.9375-13.152-13.152 0-7.2969 5.8555-13.152 13.152-13.152z" fill="#FFFFFF"/>
        <path d="m315.46 428.57c0 14.254 11.625 25.879 25.879 25.879s25.879-11.625 25.879-25.879c0-14.254-11.625-25.879-25.879-25.879s-25.879 11.625-25.879 25.879zm37.164 0c0 6.1953-5.0898 11.285-11.285 11.285s-11.285-5.0898-11.285-11.285c0-6.1953 5.0898-11.285 11.285-11.285 6.2812 0 11.285 5.0898 11.285 11.285z" fill="#FFFFFF"/>
        <path d="m547.36 275.25c12.898 0 23.418-10.52 23.418-23.418 0-12.898-10.52-23.418-23.418-23.418s-23.418 10.52-23.418 23.418c-0.003906 12.895 10.52 23.418 23.418 23.418zm0-32.242c4.8359 0 8.8242 3.9883 8.8242 8.8242 0 4.8359-3.9023 8.8242-8.8242 8.8242s-8.8242-3.9883-8.8242-8.8242c0-4.8398 3.9844-8.8242 8.8242-8.8242z" fill="#FFFFFF"/>
    </g>
</svg>